<?xml version="1.0" standalone="no"?>
<!DOCTYPE svg PUBLIC "-//W3C//DTD SVG 20010904//EN"
 "http://www.w3.org/TR/2001/REC-SVG-20010904/DTD/svg10.dtd">
<svg version="1.0" xmlns="http://www.w3.org/2000/svg"
 width="200.000000pt" height="200.000000pt" viewBox="0 0 200.000000 200.000000"
 preserveAspectRatio="xMidYMid meet">

<g transform="translate(0.000000,200.000000) scale(0.100000,-0.100000)"
fill="#000000" stroke="none">
<path d="M309 1597 c-48 -32 -68 -91 -48 -143 8 -22 29 -48 48 -61 l34 -23
657 0 657 0 34 23 c19 13 40 39 48 61 20 52 0 111 -48 143 l-34 23 -657 0
-657 0 -34 -23z"/>
<path d="M309 1097 c-48 -32 -68 -91 -48 -143 8 -22 29 -48 48 -61 l34 -23
657 0 657 0 34 23 c19 13 40 39 48 61 20 52 0 111 -48 143 l-34 23 -657 0
-657 0 -34 -23z"/>
<path d="M309 597 c-48 -32 -68 -91 -48 -143 8 -22 29 -48 48 -61 l34 -23 657
0 657 0 34 23 c19 13 40 39 48 61 20 52 0 111 -48 143 l-34 23 -657 0 -657 0
-34 -23z"/>
</g>
</svg>
