<?xml version="1.0" encoding="UTF-8"?>
<svg width="28px" height="28px" viewBox="0 0 28 28" version="1.1" xmlns="http://www.w3.org/2000/svg" xmlns:xlink="http://www.w3.org/1999/xlink">
    <!-- Generator: Sketch 46.2 (44496) - http://www.bohemiancoding.com/sketch -->
    <title>Page 1</title>
    <desc>Created with Sketch.</desc>
    <defs></defs>
    <g id="Symbols" stroke="none" stroke-width="1" fill="none" fill-rule="evenodd">
        <g id="Page-1">
            <path d="M25.9274455,0 L2.0667213,0 C0.92651491,0 0,0.903777778 0,2.01813889 L0,25.9795278 C0,27.0948611 0.92651491,28 2.0667213,28 L25.9274455,28 C27.0695963,28 28,27.0948611 28,25.9795278 L28,2.01813889 C28,0.903777778 27.0695963,0 25.9274455,0" id="Fill-1" fill="#0073B2"></path>
            <path d="M11.0749765,24 L15.2168758,24 L15.2168758,17.3912638 C15.2168758,15.6486849 15.547172,13.9609261 17.7039948,13.9609261 C19.8293793,13.9609261 19.8579066,15.9535001 19.8579066,17.5034311 L19.8579066,24 L24,24 L24,16.6721876 C24,13.0752513 23.22491,10.3083921 19.0277026,10.3083921 C17.0113818,10.3083921 15.6591467,11.4158745 15.1060655,12.4660096 L15.0509514,12.4660096 L15.0509514,10.6408118 L11.0749765,10.6408118 L11.0749765,24 Z M6.40386575,4 C7.72893197,4 8.80579086,5.07871153 8.80579086,6.40664062 C8.80579086,7.73554169 7.72893197,8.81464202 6.40386575,8.81464202 C5.07530638,8.81464202 4,7.73554169 4,6.40664062 C4,5.07871153 5.07530638,4 6.40386575,4 L6.40386575,4 Z M4.33029624,24 L8.47530056,24 L8.47530056,10.6408118 L4.33029624,10.6408118 L4.33029624,24 Z" id="Fill-4" fill="#FFFFFF"></path>
        </g>
    </g>
</svg>